<svg xmlns="http://www.w3.org/2000/svg" version="1.1" xmlns:xlink="http://www.w3.org/1999/xlink" xmlns:svgjs="http://svgjs.com/svgjs" width="1440" height="560" preserveAspectRatio="none" viewBox="0 0 1440 560"><g mask="url(&quot;#SvgjsMask1064&quot;)" fill="none"><rect width="1440" height="560" x="0" y="0" fill="rgba(0, 0, 0, 1)"></rect><path d="M-105.29 382.37L-105.29 382.37" stroke="rgba(35, 101, 19, 1)" stroke-width="1.5"></path><path d="M-105.29 382.37L-40 496.46" stroke="rgba(35, 101, 19, 1)" stroke-width="1.5"></path><path d="M-105.29 382.37L38.6 527.24" stroke="rgba(35, 101, 19, 1)" stroke-width="1.5"></path><path d="M-105.29 382.37L-54.69 670.42" stroke="rgba(35, 101, 19, 1)" stroke-width="1.5"></path><path d="M-105.29 382.37L61.94 645.24" stroke="rgba(35, 101, 19, 1)" stroke-width="1.5"></path><path d="M-105.29 382.37L222.98 409.37" stroke="rgba(35, 101, 19, 1)" stroke-width="1.5"></path><path d="M-105.29 382.37L230.15 550.37" stroke="rgba(35, 101, 19, 1)" stroke-width="1.5"></path><path d="M-40 496.46L-40 496.46" stroke="rgba(35, 101, 19, 1)" stroke-width="1.5"></path><path d="M-40 496.46L38.6 527.24" stroke="rgba(35, 101, 19, 1)" stroke-width="1.5"></path><path d="M-40 496.46L-54.69 670.42" stroke="rgba(35, 101, 19, 1)" stroke-width="1.5"></path><path d="M-40 496.46L61.94 645.24" stroke="rgba(35, 101, 19, 1)" stroke-width="1.5"></path><path d="M-54.69 670.42L-54.69 670.42" stroke="rgba(35, 101, 19, 1)" stroke-width="1.5"></path><path d="M-54.69 670.42L61.94 645.24" stroke="rgba(35, 101, 19, 1)" stroke-width="1.5"></path><path d="M-54.69 670.42L38.6 527.24" stroke="rgba(35, 101, 19, 1)" stroke-width="1.5"></path><path d="M38.6 527.24L38.6 527.24" stroke="rgba(35, 101, 19, 1)" stroke-width="1.5"></path><path d="M38.6 527.24L61.94 645.24" stroke="rgba(35, 101, 19, 1)" stroke-width="1.5"></path><path d="M38.6 527.24L230.15 550.37" stroke="rgba(35, 101, 19, 1)" stroke-width="1.5"></path><path d="M61.94 645.24L61.94 645.24" stroke="rgba(35, 101, 19, 1)" stroke-width="1.5"></path><path d="M61.94 645.24L209.35 655.93" stroke="rgba(35, 101, 19, 1)" stroke-width="1.5"></path><path d="M222.98 409.37L222.98 409.37" stroke="rgba(35, 101, 19, 1)" stroke-width="1.5"></path><path d="M222.98 409.37L230.15 550.37" stroke="rgba(35, 101, 19, 1)" stroke-width="1.5"></path><path d="M222.98 409.37L393.04 547.01" stroke="rgba(35, 101, 19, 1)" stroke-width="1.5"></path><path d="M222.98 409.37L38.6 527.24" stroke="rgba(35, 101, 19, 1)" stroke-width="1.5"></path><path d="M230.15 550.37L230.15 550.37" stroke="rgba(35, 101, 19, 1)" stroke-width="1.5"></path><path d="M230.15 550.37L209.35 655.93" stroke="rgba(35, 101, 19, 1)" stroke-width="1.5"></path><path d="M230.15 550.37L393.04 547.01" stroke="rgba(35, 101, 19, 1)" stroke-width="1.5"></path><path d="M230.15 550.37L380.66 649.55" stroke="rgba(35, 101, 19, 1)" stroke-width="1.5"></path><path d="M209.35 655.93L209.35 655.93" stroke="rgba(35, 101, 19, 1)" stroke-width="1.5"></path><path d="M209.35 655.93L380.66 649.55" stroke="rgba(35, 101, 19, 1)" stroke-width="1.5"></path><path d="M209.35 655.93L393.04 547.01" stroke="rgba(35, 101, 19, 1)" stroke-width="1.5"></path><path d="M393.04 547.01L393.04 547.01" stroke="rgba(35, 101, 19, 1)" stroke-width="1.5"></path><path d="M393.04 547.01L380.66 649.55" stroke="rgba(35, 101, 19, 1)" stroke-width="1.5"></path><path d="M393.04 547.01L509.39 510.35" stroke="rgba(35, 101, 19, 1)" stroke-width="1.5"></path><path d="M393.04 547.01L533.05 709.61" stroke="rgba(35, 101, 19, 1)" stroke-width="1.5"></path><path d="M380.66 649.55L380.66 649.55" stroke="rgba(35, 101, 19, 1)" stroke-width="1.5"></path><path d="M535.26 338.48L535.26 338.48" stroke="rgba(35, 101, 19, 1)" stroke-width="1.5"></path><path d="M535.26 338.48L661.72 240.48" stroke="rgba(35, 101, 19, 1)" stroke-width="1.5"></path><path d="M535.26 338.48L701.16 350.6" stroke="rgba(35, 101, 19, 1)" stroke-width="1.5"></path><path d="M535.26 338.48L509.39 510.35" stroke="rgba(35, 101, 19, 1)" stroke-width="1.5"></path><path d="M535.26 338.48L646.85 551.5" stroke="rgba(35, 101, 19, 1)" stroke-width="1.5"></path><path d="M509.39 510.35L509.39 510.35" stroke="rgba(35, 101, 19, 1)" stroke-width="1.5"></path><path d="M509.39 510.35L646.85 551.5" stroke="rgba(35, 101, 19, 1)" stroke-width="1.5"></path><path d="M509.39 510.35L380.66 649.55" stroke="rgba(35, 101, 19, 1)" stroke-width="1.5"></path><path d="M509.39 510.35L533.05 709.61" stroke="rgba(35, 101, 19, 1)" stroke-width="1.5"></path><path d="M509.39 510.35L701.16 350.6" stroke="rgba(35, 101, 19, 1)" stroke-width="1.5"></path><path d="M533.05 709.61L533.05 709.61" stroke="rgba(35, 101, 19, 1)" stroke-width="1.5"></path><path d="M533.05 709.61L380.66 649.55" stroke="rgba(35, 101, 19, 1)" stroke-width="1.5"></path><path d="M533.05 709.61L709.59 708.45" stroke="rgba(35, 101, 19, 1)" stroke-width="1.5"></path><path d="M533.05 709.61L646.85 551.5" stroke="rgba(35, 101, 19, 1)" stroke-width="1.5"></path><path d="M661.72 240.48L661.72 240.48" stroke="rgba(35, 101, 19, 1)" stroke-width="1.5"></path><path d="M661.72 240.48L701.16 350.6" stroke="rgba(35, 101, 19, 1)" stroke-width="1.5"></path><path d="M661.72 240.48L800.11 204.26" stroke="rgba(35, 101, 19, 1)" stroke-width="1.5"></path><path d="M701.16 350.6L701.16 350.6" stroke="rgba(35, 101, 19, 1)" stroke-width="1.5"></path><path d="M701.16 350.6L843.78 378.57" stroke="rgba(35, 101, 19, 1)" stroke-width="1.5"></path><path d="M646.85 551.5L646.85 551.5" stroke="rgba(35, 101, 19, 1)" stroke-width="1.5"></path><path d="M646.85 551.5L802.39 537.56" stroke="rgba(35, 101, 19, 1)" stroke-width="1.5"></path><path d="M709.59 708.45L709.59 708.45" stroke="rgba(35, 101, 19, 1)" stroke-width="1.5"></path><path d="M709.59 708.45L835.61 644.9" stroke="rgba(35, 101, 19, 1)" stroke-width="1.5"></path><path d="M709.59 708.45L646.85 551.5" stroke="rgba(35, 101, 19, 1)" stroke-width="1.5"></path><path d="M800.11 204.26L800.11 204.26" stroke="rgba(35, 101, 19, 1)" stroke-width="1.5"></path><path d="M843.78 378.57L843.78 378.57" stroke="rgba(35, 101, 19, 1)" stroke-width="1.5"></path><path d="M843.78 378.57L802.39 537.56" stroke="rgba(35, 101, 19, 1)" stroke-width="1.5"></path><path d="M843.78 378.57L958.07 241.37" stroke="rgba(35, 101, 19, 1)" stroke-width="1.5"></path><path d="M843.78 378.57L800.11 204.26" stroke="rgba(35, 101, 19, 1)" stroke-width="1.5"></path><path d="M802.39 537.56L802.39 537.56" stroke="rgba(35, 101, 19, 1)" stroke-width="1.5"></path><path d="M802.39 537.56L835.61 644.9" stroke="rgba(35, 101, 19, 1)" stroke-width="1.5"></path><path d="M835.61 644.9L835.61 644.9" stroke="rgba(35, 101, 19, 1)" stroke-width="1.5"></path><path d="M835.61 644.9L947.67 646.06" stroke="rgba(35, 101, 19, 1)" stroke-width="1.5"></path><path d="M835.61 644.9L998.71 516.41" stroke="rgba(35, 101, 19, 1)" stroke-width="1.5"></path><path d="M835.61 644.9L646.85 551.5" stroke="rgba(35, 101, 19, 1)" stroke-width="1.5"></path><path d="M973.83 -97.44L973.83 -97.44" stroke="rgba(35, 101, 19, 1)" stroke-width="1.5"></path><path d="M973.83 -97.44L978.43 42.41" stroke="rgba(35, 101, 19, 1)" stroke-width="1.5"></path><path d="M973.83 -97.44L1139.07 -107.92" stroke="rgba(35, 101, 19, 1)" stroke-width="1.5"></path><path d="M973.83 -97.44L1103.53 60.05" stroke="rgba(35, 101, 19, 1)" stroke-width="1.5"></path><path d="M973.83 -97.44L1245.99 -79.97" stroke="rgba(35, 101, 19, 1)" stroke-width="1.5"></path><path d="M978.43 42.41L978.43 42.41" stroke="rgba(35, 101, 19, 1)" stroke-width="1.5"></path><path d="M978.43 42.41L1103.53 60.05" stroke="rgba(35, 101, 19, 1)" stroke-width="1.5"></path><path d="M978.43 42.41L958.07 241.37" stroke="rgba(35, 101, 19, 1)" stroke-width="1.5"></path><path d="M978.43 42.41L1139.07 -107.92" stroke="rgba(35, 101, 19, 1)" stroke-width="1.5"></path><path d="M978.43 42.41L800.11 204.26" stroke="rgba(35, 101, 19, 1)" stroke-width="1.5"></path><path d="M958.07 241.37L958.07 241.37" stroke="rgba(35, 101, 19, 1)" stroke-width="1.5"></path><path d="M958.07 241.37L1089.93 261.44" stroke="rgba(35, 101, 19, 1)" stroke-width="1.5"></path><path d="M958.07 241.37L800.11 204.26" stroke="rgba(35, 101, 19, 1)" stroke-width="1.5"></path><path d="M998.71 516.41L998.71 516.41" stroke="rgba(35, 101, 19, 1)" stroke-width="1.5"></path><path d="M998.71 516.41L947.67 646.06" stroke="rgba(35, 101, 19, 1)" stroke-width="1.5"></path><path d="M998.71 516.41L1151.11 495.66" stroke="rgba(35, 101, 19, 1)" stroke-width="1.5"></path><path d="M998.71 516.41L1125.14 366.07" stroke="rgba(35, 101, 19, 1)" stroke-width="1.5"></path><path d="M947.67 646.06L947.67 646.06" stroke="rgba(35, 101, 19, 1)" stroke-width="1.5"></path><path d="M947.67 646.06L802.39 537.56" stroke="rgba(35, 101, 19, 1)" stroke-width="1.5"></path><path d="M947.67 646.06L1157.21 647.09" stroke="rgba(35, 101, 19, 1)" stroke-width="1.5"></path><path d="M1139.07 -107.92L1139.07 -107.92" stroke="rgba(35, 101, 19, 1)" stroke-width="1.5"></path><path d="M1139.07 -107.92L1245.99 -79.97" stroke="rgba(35, 101, 19, 1)" stroke-width="1.5"></path><path d="M1103.53 60.05L1103.53 60.05" stroke="rgba(35, 101, 19, 1)" stroke-width="1.5"></path><path d="M1103.53 60.05L1252.74 67.12" stroke="rgba(35, 101, 19, 1)" stroke-width="1.5"></path><path d="M1103.53 60.05L1139.07 -107.92" stroke="rgba(35, 101, 19, 1)" stroke-width="1.5"></path><path d="M1089.93 261.44L1089.93 261.44" stroke="rgba(35, 101, 19, 1)" stroke-width="1.5"></path><path d="M1089.93 261.44L1125.14 366.07" stroke="rgba(35, 101, 19, 1)" stroke-width="1.5"></path><path d="M1089.93 261.44L1239.65 198.85" stroke="rgba(35, 101, 19, 1)" stroke-width="1.5"></path><path d="M1089.93 261.44L1103.53 60.05" stroke="rgba(35, 101, 19, 1)" stroke-width="1.5"></path><path d="M1125.14 366.07L1125.14 366.07" stroke="rgba(35, 101, 19, 1)" stroke-width="1.5"></path><path d="M1125.14 366.07L1151.11 495.66" stroke="rgba(35, 101, 19, 1)" stroke-width="1.5"></path><path d="M1125.14 366.07L1263.16 397.48" stroke="rgba(35, 101, 19, 1)" stroke-width="1.5"></path><path d="M1151.11 495.66L1151.11 495.66" stroke="rgba(35, 101, 19, 1)" stroke-width="1.5"></path><path d="M1151.11 495.66L1280.49 546.62" stroke="rgba(35, 101, 19, 1)" stroke-width="1.5"></path><path d="M1151.11 495.66L1263.16 397.48" stroke="rgba(35, 101, 19, 1)" stroke-width="1.5"></path><path d="M1151.11 495.66L1157.21 647.09" stroke="rgba(35, 101, 19, 1)" stroke-width="1.5"></path><path d="M1157.21 647.09L1157.21 647.09" stroke="rgba(35, 101, 19, 1)" stroke-width="1.5"></path><path d="M1157.21 647.09L1280.49 546.62" stroke="rgba(35, 101, 19, 1)" stroke-width="1.5"></path><path d="M1157.21 647.09L1311.69 687.18" stroke="rgba(35, 101, 19, 1)" stroke-width="1.5"></path><path d="M1157.21 647.09L998.71 516.41" stroke="rgba(35, 101, 19, 1)" stroke-width="1.5"></path><path d="M1245.99 -79.97L1245.99 -79.97" stroke="rgba(35, 101, 19, 1)" stroke-width="1.5"></path><path d="M1245.99 -79.97L1252.74 67.12" stroke="rgba(35, 101, 19, 1)" stroke-width="1.5"></path><path d="M1245.99 -79.97L1423.63 -66.8" stroke="rgba(35, 101, 19, 1)" stroke-width="1.5"></path><path d="M1252.74 67.12L1252.74 67.12" stroke="rgba(35, 101, 19, 1)" stroke-width="1.5"></path><path d="M1252.74 67.12L1239.65 198.85" stroke="rgba(35, 101, 19, 1)" stroke-width="1.5"></path><path d="M1252.74 67.12L1391.34 88.77" stroke="rgba(35, 101, 19, 1)" stroke-width="1.5"></path><path d="M1239.65 198.85L1239.65 198.85" stroke="rgba(35, 101, 19, 1)" stroke-width="1.5"></path><path d="M1239.65 198.85L1391.34 88.77" stroke="rgba(35, 101, 19, 1)" stroke-width="1.5"></path><path d="M1239.65 198.85L1103.53 60.05" stroke="rgba(35, 101, 19, 1)" stroke-width="1.5"></path><path d="M1239.65 198.85L1263.16 397.48" stroke="rgba(35, 101, 19, 1)" stroke-width="1.5"></path><path d="M1239.65 198.85L1437.63 231.32" stroke="rgba(35, 101, 19, 1)" stroke-width="1.5"></path><path d="M1263.16 397.48L1263.16 397.48" stroke="rgba(35, 101, 19, 1)" stroke-width="1.5"></path><path d="M1263.16 397.48L1280.49 546.62" stroke="rgba(35, 101, 19, 1)" stroke-width="1.5"></path><path d="M1280.49 546.62L1280.49 546.62" stroke="rgba(35, 101, 19, 1)" stroke-width="1.5"></path><path d="M1280.49 546.62L1311.69 687.18" stroke="rgba(35, 101, 19, 1)" stroke-width="1.5"></path><path d="M1280.49 546.62L1431.52 557.57" stroke="rgba(35, 101, 19, 1)" stroke-width="1.5"></path><path d="M1280.49 546.62L1459.24 673.15" stroke="rgba(35, 101, 19, 1)" stroke-width="1.5"></path><path d="M1311.69 687.18L1311.69 687.18" stroke="rgba(35, 101, 19, 1)" stroke-width="1.5"></path><path d="M1311.69 687.18L1459.24 673.15" stroke="rgba(35, 101, 19, 1)" stroke-width="1.5"></path><path d="M1423.63 -66.8L1423.63 -66.8" stroke="rgba(35, 101, 19, 1)" stroke-width="1.5"></path><path d="M1423.63 -66.8L1391.34 88.77" stroke="rgba(35, 101, 19, 1)" stroke-width="1.5"></path><path d="M1391.34 88.77L1391.34 88.77" stroke="rgba(35, 101, 19, 1)" stroke-width="1.5"></path><path d="M1391.34 88.77L1437.63 231.32" stroke="rgba(35, 101, 19, 1)" stroke-width="1.5"></path><path d="M1437.63 231.32L1437.63 231.32" stroke="rgba(35, 101, 19, 1)" stroke-width="1.5"></path><path d="M1437.63 231.32L1595.17 205.59" stroke="rgba(35, 101, 19, 1)" stroke-width="1.5"></path><path d="M1437.63 231.32L1551.13 66.68" stroke="rgba(35, 101, 19, 1)" stroke-width="1.5"></path><path d="M1431.52 557.57L1431.52 557.57" stroke="rgba(35, 101, 19, 1)" stroke-width="1.5"></path><path d="M1431.52 557.57L1459.24 673.15" stroke="rgba(35, 101, 19, 1)" stroke-width="1.5"></path><path d="M1431.52 557.57L1595.44 539.54" stroke="rgba(35, 101, 19, 1)" stroke-width="1.5"></path><path d="M1431.52 557.57L1311.69 687.18" stroke="rgba(35, 101, 19, 1)" stroke-width="1.5"></path><path d="M1431.52 557.57L1552.37 396.7" stroke="rgba(35, 101, 19, 1)" stroke-width="1.5"></path><path d="M1431.52 557.57L1603.99 689.64" stroke="rgba(35, 101, 19, 1)" stroke-width="1.5"></path><path d="M1459.24 673.15L1459.24 673.15" stroke="rgba(35, 101, 19, 1)" stroke-width="1.5"></path><path d="M1459.24 673.15L1603.99 689.64" stroke="rgba(35, 101, 19, 1)" stroke-width="1.5"></path><path d="M1459.24 673.15L1595.44 539.54" stroke="rgba(35, 101, 19, 1)" stroke-width="1.5"></path><path d="M1459.24 673.15L1552.37 396.7" stroke="rgba(35, 101, 19, 1)" stroke-width="1.5"></path><path d="M1597.62 -42.38L1597.62 -42.38" stroke="rgba(35, 101, 19, 1)" stroke-width="1.5"></path><path d="M1597.62 -42.38L1551.13 66.68" stroke="rgba(35, 101, 19, 1)" stroke-width="1.5"></path><path d="M1597.62 -42.38L1423.63 -66.8" stroke="rgba(35, 101, 19, 1)" stroke-width="1.5"></path><path d="M1597.62 -42.38L1391.34 88.77" stroke="rgba(35, 101, 19, 1)" stroke-width="1.5"></path><path d="M1551.13 66.68L1551.13 66.68" stroke="rgba(35, 101, 19, 1)" stroke-width="1.5"></path><path d="M1551.13 66.68L1595.17 205.59" stroke="rgba(35, 101, 19, 1)" stroke-width="1.5"></path><path d="M1551.13 66.68L1391.34 88.77" stroke="rgba(35, 101, 19, 1)" stroke-width="1.5"></path><path d="M1551.13 66.68L1423.63 -66.8" stroke="rgba(35, 101, 19, 1)" stroke-width="1.5"></path><path d="M1595.17 205.59L1595.17 205.59" stroke="rgba(35, 101, 19, 1)" stroke-width="1.5"></path><path d="M1595.17 205.59L1552.37 396.7" stroke="rgba(35, 101, 19, 1)" stroke-width="1.5"></path><path d="M1595.17 205.59L1391.34 88.77" stroke="rgba(35, 101, 19, 1)" stroke-width="1.5"></path><path d="M1595.17 205.59L1597.62 -42.38" stroke="rgba(35, 101, 19, 1)" stroke-width="1.5"></path><path d="M1552.37 396.7L1552.37 396.7" stroke="rgba(35, 101, 19, 1)" stroke-width="1.5"></path><path d="M1552.37 396.7L1595.44 539.54" stroke="rgba(35, 101, 19, 1)" stroke-width="1.5"></path><path d="M1552.37 396.7L1437.63 231.32" stroke="rgba(35, 101, 19, 1)" stroke-width="1.5"></path><path d="M1552.37 396.7L1263.16 397.48" stroke="rgba(35, 101, 19, 1)" stroke-width="1.5"></path><path d="M1595.44 539.54L1595.44 539.54" stroke="rgba(35, 101, 19, 1)" stroke-width="1.5"></path><path d="M1595.44 539.54L1603.99 689.64" stroke="rgba(35, 101, 19, 1)" stroke-width="1.5"></path><path d="M1595.44 539.54L1280.49 546.62" stroke="rgba(35, 101, 19, 1)" stroke-width="1.5"></path><path d="M1603.99 689.64L1603.99 689.64" stroke="rgba(35, 101, 19, 1)" stroke-width="1.5"></path><path d="M1603.99 689.64L1311.69 687.18" stroke="rgba(35, 101, 19, 1)" stroke-width="1.5"></path><path d="M1603.99 689.64L1552.37 396.7" stroke="rgba(35, 101, 19, 1)" stroke-width="1.5"></path><circle r="5" cx="-105.29" cy="382.37" fill="rgba(35, 101, 19, 1)"></circle><circle r="5" cx="-40" cy="496.46" fill="rgba(35, 101, 19, 1)"></circle><circle r="5" cx="-54.69" cy="670.42" fill="rgba(35, 101, 19, 1)"></circle><circle r="5" cx="38.6" cy="527.24" fill="rgba(35, 101, 19, 1)"></circle><circle r="5" cx="61.94" cy="645.24" fill="rgba(35, 101, 19, 1)"></circle><circle r="5" cx="222.98" cy="409.37" fill="rgba(35, 101, 19, 1)"></circle><circle r="5" cx="230.15" cy="550.37" fill="rgba(35, 101, 19, 1)"></circle><circle r="5" cx="209.35" cy="655.93" fill="rgba(35, 101, 19, 1)"></circle><circle r="5" cx="393.04" cy="547.01" fill="rgba(35, 101, 19, 1)"></circle><circle r="5" cx="380.66" cy="649.55" fill="rgba(35, 101, 19, 1)"></circle><circle r="5" cx="535.26" cy="338.48" fill="rgba(35, 101, 19, 1)"></circle><circle r="5" cx="509.39" cy="510.35" fill="rgba(35, 101, 19, 1)"></circle><circle r="5" cx="533.05" cy="709.61" fill="rgba(35, 101, 19, 1)"></circle><circle r="5" cx="661.72" cy="240.48" fill="rgba(35, 101, 19, 1)"></circle><circle r="5" cx="701.16" cy="350.6" fill="rgba(35, 101, 19, 1)"></circle><circle r="5" cx="646.85" cy="551.5" fill="rgba(35, 101, 19, 1)"></circle><circle r="5" cx="709.59" cy="708.45" fill="rgba(35, 101, 19, 1)"></circle><circle r="5" cx="800.11" cy="204.26" fill="rgba(35, 101, 19, 1)"></circle><circle r="5" cx="843.78" cy="378.57" fill="rgba(35, 101, 19, 1)"></circle><circle r="5" cx="802.39" cy="537.56" fill="rgba(35, 101, 19, 1)"></circle><circle r="5" cx="835.61" cy="644.9" fill="rgba(35, 101, 19, 1)"></circle><circle r="5" cx="973.83" cy="-97.44" fill="rgba(35, 101, 19, 1)"></circle><circle r="5" cx="978.43" cy="42.41" fill="rgba(35, 101, 19, 1)"></circle><circle r="5" cx="958.07" cy="241.37" fill="rgba(35, 101, 19, 1)"></circle><circle r="5" cx="998.71" cy="516.41" fill="rgba(35, 101, 19, 1)"></circle><circle r="5" cx="947.67" cy="646.06" fill="rgba(35, 101, 19, 1)"></circle><circle r="5" cx="1139.07" cy="-107.92" fill="rgba(35, 101, 19, 1)"></circle><circle r="5" cx="1103.53" cy="60.05" fill="rgba(35, 101, 19, 1)"></circle><circle r="5" cx="1089.93" cy="261.44" fill="rgba(35, 101, 19, 1)"></circle><circle r="5" cx="1125.14" cy="366.07" fill="rgba(35, 101, 19, 1)"></circle><circle r="5" cx="1151.11" cy="495.66" fill="rgba(35, 101, 19, 1)"></circle><circle r="5" cx="1157.21" cy="647.09" fill="rgba(35, 101, 19, 1)"></circle><circle r="5" cx="1245.99" cy="-79.97" fill="rgba(35, 101, 19, 1)"></circle><circle r="5" cx="1252.74" cy="67.12" fill="rgba(35, 101, 19, 1)"></circle><circle r="5" cx="1239.65" cy="198.85" fill="rgba(35, 101, 19, 1)"></circle><circle r="5" cx="1263.16" cy="397.48" fill="rgba(35, 101, 19, 1)"></circle><circle r="5" cx="1280.49" cy="546.62" fill="rgba(35, 101, 19, 1)"></circle><circle r="5" cx="1311.69" cy="687.18" fill="rgba(35, 101, 19, 1)"></circle><circle r="5" cx="1423.63" cy="-66.8" fill="rgba(35, 101, 19, 1)"></circle><circle r="5" cx="1391.34" cy="88.77" fill="rgba(35, 101, 19, 1)"></circle><circle r="5" cx="1437.63" cy="231.32" fill="rgba(35, 101, 19, 1)"></circle><circle r="5" cx="1431.52" cy="557.57" fill="rgba(35, 101, 19, 1)"></circle><circle r="5" cx="1459.24" cy="673.15" fill="rgba(35, 101, 19, 1)"></circle><circle r="5" cx="1597.62" cy="-42.38" fill="rgba(35, 101, 19, 1)"></circle><circle r="5" cx="1551.13" cy="66.68" fill="rgba(35, 101, 19, 1)"></circle><circle r="5" cx="1595.17" cy="205.59" fill="rgba(35, 101, 19, 1)"></circle><circle r="5" cx="1552.37" cy="396.7" fill="rgba(35, 101, 19, 1)"></circle><circle r="5" cx="1595.44" cy="539.54" fill="rgba(35, 101, 19, 1)"></circle><circle r="5" cx="1603.99" cy="689.64" fill="rgba(35, 101, 19, 1)"></circle><path d="M956.93 346.98L956.93 346.98" stroke="hsl(124.19999999999999, 77.2%, 51.5%)" stroke-width="1.5"></path><path d="M956.93 346.98L1094.6 355.13" stroke="hsl(124.19999999999999, 77.2%, 51.5%)" stroke-width="1.5"></path><path d="M956.93 346.98L806.62 366.13" stroke="hsl(124.19999999999999, 77.2%, 51.5%)" stroke-width="1.5"></path><path d="M1148.83 252.87L1148.83 252.87" stroke="hsl(124.19999999999999, 77.2%, 51.5%)" stroke-width="1.5"></path><path d="M1148.83 252.87L1094.6 355.13" stroke="hsl(124.19999999999999, 77.2%, 51.5%)" stroke-width="1.5"></path><path d="M1148.83 252.87L1281.84 241.75" stroke="hsl(124.19999999999999, 77.2%, 51.5%)" stroke-width="1.5"></path><path d="M1148.83 252.87L1240.03 95.05" stroke="hsl(124.19999999999999, 77.2%, 51.5%)" stroke-width="1.5"></path><path d="M1148.83 252.87L1310.24 379.52" stroke="hsl(124.19999999999999, 77.2%, 51.5%)" stroke-width="1.5"></path><path d="M1310.52 -56.27L1310.52 -56.27" stroke="hsl(124.19999999999999, 77.2%, 51.5%)" stroke-width="1.5"></path><path d="M1310.52 -56.27L1434.81 -82.12" stroke="hsl(124.19999999999999, 77.2%, 51.5%)" stroke-width="1.5"></path><path d="M1310.52 -56.27L1240.03 95.05" stroke="hsl(124.19999999999999, 77.2%, 51.5%)" stroke-width="1.5"></path><path d="M1310.52 -56.27L1553.89 -98.04" stroke="hsl(124.19999999999999, 77.2%, 51.5%)" stroke-width="1.5"></path><path d="M1310.52 -56.27L1281.84 241.75" stroke="hsl(124.19999999999999, 77.2%, 51.5%)" stroke-width="1.5"></path><path d="M1310.52 -56.27L1585.92 99.22" stroke="hsl(124.19999999999999, 77.2%, 51.5%)" stroke-width="1.5"></path><path d="M1310.52 -56.27L1459.2 255.48" stroke="hsl(124.19999999999999, 77.2%, 51.5%)" stroke-width="1.5"></path><path d="M1590.06 222.45L1590.06 222.45" stroke="hsl(124.19999999999999, 77.2%, 51.5%)" stroke-width="1.5"></path><path d="M1590.06 222.45L1585.92 99.22" stroke="hsl(124.19999999999999, 77.2%, 51.5%)" stroke-width="1.5"></path><path d="M1590.06 222.45L1459.2 255.48" stroke="hsl(124.19999999999999, 77.2%, 51.5%)" stroke-width="1.5"></path><path d="M1590.06 222.45L1545.1 392.36" stroke="hsl(124.19999999999999, 77.2%, 51.5%)" stroke-width="1.5"></path><path d="M1590.06 222.45L1394.26 378.3" stroke="hsl(124.19999999999999, 77.2%, 51.5%)" stroke-width="1.5"></path><path d="M1590.06 222.45L1281.84 241.75" stroke="hsl(124.19999999999999, 77.2%, 51.5%)" stroke-width="1.5"></path><path d="M-110.63 506.78L-110.63 506.78" stroke="hsl(124.19999999999999, 77.2%, 51.5%)" stroke-width="1.5"></path><path d="M-110.63 506.78L-109.3 709.5" stroke="hsl(124.19999999999999, 77.2%, 51.5%)" stroke-width="1.5"></path><path d="M-110.63 506.78L87.06 559.16" stroke="hsl(124.19999999999999, 77.2%, 51.5%)" stroke-width="1.5"></path><path d="M-110.63 506.78L234.21 659.14" stroke="hsl(124.19999999999999, 77.2%, 51.5%)" stroke-width="1.5"></path><path d="M-110.63 506.78L341.02 644.68" stroke="hsl(124.19999999999999, 77.2%, 51.5%)" stroke-width="1.5"></path><path d="M-110.63 506.78L407.45 541.97" stroke="hsl(124.19999999999999, 77.2%, 51.5%)" stroke-width="1.5"></path><path d="M-109.3 709.5L-109.3 709.5" stroke="hsl(124.19999999999999, 77.2%, 51.5%)" stroke-width="1.5"></path><path d="M-109.3 709.5L87.06 559.16" stroke="hsl(124.19999999999999, 77.2%, 51.5%)" stroke-width="1.5"></path><path d="M-109.3 709.5L234.21 659.14" stroke="hsl(124.19999999999999, 77.2%, 51.5%)" stroke-width="1.5"></path><path d="M87.06 559.16L87.06 559.16" stroke="hsl(124.19999999999999, 77.2%, 51.5%)" stroke-width="1.5"></path><path d="M87.06 559.16L234.21 659.14" stroke="hsl(124.19999999999999, 77.2%, 51.5%)" stroke-width="1.5"></path><path d="M87.06 559.16L341.02 644.68" stroke="hsl(124.19999999999999, 77.2%, 51.5%)" stroke-width="1.5"></path><path d="M234.21 659.14L234.21 659.14" stroke="hsl(124.19999999999999, 77.2%, 51.5%)" stroke-width="1.5"></path><path d="M234.21 659.14L341.02 644.68" stroke="hsl(124.19999999999999, 77.2%, 51.5%)" stroke-width="1.5"></path><path d="M234.21 659.14L407.45 541.97" stroke="hsl(124.19999999999999, 77.2%, 51.5%)" stroke-width="1.5"></path><path d="M407.45 541.97L407.45 541.97" stroke="hsl(124.19999999999999, 77.2%, 51.5%)" stroke-width="1.5"></path><path d="M407.45 541.97L341.02 644.68" stroke="hsl(124.19999999999999, 77.2%, 51.5%)" stroke-width="1.5"></path><path d="M407.45 541.97L537.63 398.03" stroke="hsl(124.19999999999999, 77.2%, 51.5%)" stroke-width="1.5"></path><path d="M341.02 644.68L341.02 644.68" stroke="hsl(124.19999999999999, 77.2%, 51.5%)" stroke-width="1.5"></path><path d="M341.02 644.68L553.43 696.69" stroke="hsl(124.19999999999999, 77.2%, 51.5%)" stroke-width="1.5"></path><path d="M341.02 644.68L537.63 398.03" stroke="hsl(124.19999999999999, 77.2%, 51.5%)" stroke-width="1.5"></path><path d="M341.02 644.68L704.66 712.3" stroke="hsl(124.19999999999999, 77.2%, 51.5%)" stroke-width="1.5"></path><path d="M537.63 398.03L537.63 398.03" stroke="hsl(124.19999999999999, 77.2%, 51.5%)" stroke-width="1.5"></path><path d="M537.63 398.03L806.62 366.13" stroke="hsl(124.19999999999999, 77.2%, 51.5%)" stroke-width="1.5"></path><path d="M537.63 398.03L811.35 506.79" stroke="hsl(124.19999999999999, 77.2%, 51.5%)" stroke-width="1.5"></path><path d="M537.63 398.03L553.43 696.69" stroke="hsl(124.19999999999999, 77.2%, 51.5%)" stroke-width="1.5"></path><path d="M537.63 398.03L704.66 712.3" stroke="hsl(124.19999999999999, 77.2%, 51.5%)" stroke-width="1.5"></path><path d="M553.43 696.69L553.43 696.69" stroke="hsl(124.19999999999999, 77.2%, 51.5%)" stroke-width="1.5"></path><path d="M553.43 696.69L704.66 712.3" stroke="hsl(124.19999999999999, 77.2%, 51.5%)" stroke-width="1.5"></path><path d="M553.43 696.69L407.45 541.97" stroke="hsl(124.19999999999999, 77.2%, 51.5%)" stroke-width="1.5"></path><path d="M704.66 712.3L704.66 712.3" stroke="hsl(124.19999999999999, 77.2%, 51.5%)" stroke-width="1.5"></path><path d="M704.66 712.3L796.12 667.41" stroke="hsl(124.19999999999999, 77.2%, 51.5%)" stroke-width="1.5"></path><path d="M704.66 712.3L811.35 506.79" stroke="hsl(124.19999999999999, 77.2%, 51.5%)" stroke-width="1.5"></path><path d="M704.66 712.3L972.85 646.48" stroke="hsl(124.19999999999999, 77.2%, 51.5%)" stroke-width="1.5"></path><path d="M806.62 366.13L806.62 366.13" stroke="hsl(124.19999999999999, 77.2%, 51.5%)" stroke-width="1.5"></path><path d="M806.62 366.13L811.35 506.79" stroke="hsl(124.19999999999999, 77.2%, 51.5%)" stroke-width="1.5"></path><path d="M806.62 366.13L1094.6 355.13" stroke="hsl(124.19999999999999, 77.2%, 51.5%)" stroke-width="1.5"></path><path d="M811.35 506.79L811.35 506.79" stroke="hsl(124.19999999999999, 77.2%, 51.5%)" stroke-width="1.5"></path><path d="M811.35 506.79L796.12 667.41" stroke="hsl(124.19999999999999, 77.2%, 51.5%)" stroke-width="1.5"></path><path d="M811.35 506.79L972.85 646.48" stroke="hsl(124.19999999999999, 77.2%, 51.5%)" stroke-width="1.5"></path><path d="M811.35 506.79L956.93 346.98" stroke="hsl(124.19999999999999, 77.2%, 51.5%)" stroke-width="1.5"></path><path d="M796.12 667.41L796.12 667.41" stroke="hsl(124.19999999999999, 77.2%, 51.5%)" stroke-width="1.5"></path><path d="M972.85 646.48L972.85 646.48" stroke="hsl(124.19999999999999, 77.2%, 51.5%)" stroke-width="1.5"></path><path d="M972.85 646.48L1149.01 655.63" stroke="hsl(124.19999999999999, 77.2%, 51.5%)" stroke-width="1.5"></path><path d="M972.85 646.48L796.12 667.41" stroke="hsl(124.19999999999999, 77.2%, 51.5%)" stroke-width="1.5"></path><path d="M972.85 646.48L1139.62 551.62" stroke="hsl(124.19999999999999, 77.2%, 51.5%)" stroke-width="1.5"></path><path d="M1094.6 355.13L1094.6 355.13" stroke="hsl(124.19999999999999, 77.2%, 51.5%)" stroke-width="1.5"></path><path d="M1094.6 355.13L1139.62 551.62" stroke="hsl(124.19999999999999, 77.2%, 51.5%)" stroke-width="1.5"></path><path d="M1094.6 355.13L1310.24 379.52" stroke="hsl(124.19999999999999, 77.2%, 51.5%)" stroke-width="1.5"></path><path d="M1094.6 355.13L1281.84 241.75" stroke="hsl(124.19999999999999, 77.2%, 51.5%)" stroke-width="1.5"></path><path d="M1094.6 355.13L1308.71 502.26" stroke="hsl(124.19999999999999, 77.2%, 51.5%)" stroke-width="1.5"></path><path d="M1139.62 551.62L1139.62 551.62" stroke="hsl(124.19999999999999, 77.2%, 51.5%)" stroke-width="1.5"></path><path d="M1139.62 551.62L1149.01 655.63" stroke="hsl(124.19999999999999, 77.2%, 51.5%)" stroke-width="1.5"></path><path d="M1139.62 551.62L1308.71 502.26" stroke="hsl(124.19999999999999, 77.2%, 51.5%)" stroke-width="1.5"></path><path d="M1139.62 551.62L1276.14 666.6" stroke="hsl(124.19999999999999, 77.2%, 51.5%)" stroke-width="1.5"></path><path d="M1149.01 655.63L1149.01 655.63" stroke="hsl(124.19999999999999, 77.2%, 51.5%)" stroke-width="1.5"></path><path d="M1149.01 655.63L1276.14 666.6" stroke="hsl(124.19999999999999, 77.2%, 51.5%)" stroke-width="1.5"></path><path d="M1240.03 95.05L1240.03 95.05" stroke="hsl(124.19999999999999, 77.2%, 51.5%)" stroke-width="1.5"></path><path d="M1240.03 95.05L1281.84 241.75" stroke="hsl(124.19999999999999, 77.2%, 51.5%)" stroke-width="1.5"></path><path d="M1281.84 241.75L1281.84 241.75" stroke="hsl(124.19999999999999, 77.2%, 51.5%)" stroke-width="1.5"></path><path d="M1281.84 241.75L1310.24 379.52" stroke="hsl(124.19999999999999, 77.2%, 51.5%)" stroke-width="1.5"></path><path d="M1281.84 241.75L1394.26 378.3" stroke="hsl(124.19999999999999, 77.2%, 51.5%)" stroke-width="1.5"></path><path d="M1281.84 241.75L1459.2 255.48" stroke="hsl(124.19999999999999, 77.2%, 51.5%)" stroke-width="1.5"></path><path d="M1310.24 379.52L1310.24 379.52" stroke="hsl(124.19999999999999, 77.2%, 51.5%)" stroke-width="1.5"></path><path d="M1310.24 379.52L1394.26 378.3" stroke="hsl(124.19999999999999, 77.2%, 51.5%)" stroke-width="1.5"></path><path d="M1310.24 379.52L1308.71 502.26" stroke="hsl(124.19999999999999, 77.2%, 51.5%)" stroke-width="1.5"></path><path d="M1308.71 502.26L1308.71 502.26" stroke="hsl(124.19999999999999, 77.2%, 51.5%)" stroke-width="1.5"></path><path d="M1308.71 502.26L1394.26 378.3" stroke="hsl(124.19999999999999, 77.2%, 51.5%)" stroke-width="1.5"></path><path d="M1308.71 502.26L1276.14 666.6" stroke="hsl(124.19999999999999, 77.2%, 51.5%)" stroke-width="1.5"></path><path d="M1308.71 502.26L1397.7 673.94" stroke="hsl(124.19999999999999, 77.2%, 51.5%)" stroke-width="1.5"></path><path d="M1276.14 666.6L1276.14 666.6" stroke="hsl(124.19999999999999, 77.2%, 51.5%)" stroke-width="1.5"></path><path d="M1276.14 666.6L1397.7 673.94" stroke="hsl(124.19999999999999, 77.2%, 51.5%)" stroke-width="1.5"></path><path d="M1434.81 -82.12L1434.81 -82.12" stroke="hsl(124.19999999999999, 77.2%, 51.5%)" stroke-width="1.5"></path><path d="M1434.81 -82.12L1553.89 -98.04" stroke="hsl(124.19999999999999, 77.2%, 51.5%)" stroke-width="1.5"></path><path d="M1434.81 -82.12L1585.92 99.22" stroke="hsl(124.19999999999999, 77.2%, 51.5%)" stroke-width="1.5"></path><path d="M1434.81 -82.12L1240.03 95.05" stroke="hsl(124.19999999999999, 77.2%, 51.5%)" stroke-width="1.5"></path><path d="M1434.81 -82.12L1459.2 255.48" stroke="hsl(124.19999999999999, 77.2%, 51.5%)" stroke-width="1.5"></path><path d="M1459.2 255.48L1459.2 255.48" stroke="hsl(124.19999999999999, 77.2%, 51.5%)" stroke-width="1.5"></path><path d="M1459.2 255.48L1394.26 378.3" stroke="hsl(124.19999999999999, 77.2%, 51.5%)" stroke-width="1.5"></path><path d="M1459.2 255.48L1545.1 392.36" stroke="hsl(124.19999999999999, 77.2%, 51.5%)" stroke-width="1.5"></path><path d="M1394.26 378.3L1394.26 378.3" stroke="hsl(124.19999999999999, 77.2%, 51.5%)" stroke-width="1.5"></path><path d="M1394.26 378.3L1545.1 392.36" stroke="hsl(124.19999999999999, 77.2%, 51.5%)" stroke-width="1.5"></path><path d="M1394.26 378.3L1555.08 556.73" stroke="hsl(124.19999999999999, 77.2%, 51.5%)" stroke-width="1.5"></path><path d="M1397.7 673.94L1397.7 673.94" stroke="hsl(124.19999999999999, 77.2%, 51.5%)" stroke-width="1.5"></path><path d="M1397.7 673.94L1548.12 686.91" stroke="hsl(124.19999999999999, 77.2%, 51.5%)" stroke-width="1.5"></path><path d="M1397.7 673.94L1555.08 556.73" stroke="hsl(124.19999999999999, 77.2%, 51.5%)" stroke-width="1.5"></path><path d="M1397.7 673.94L1149.01 655.63" stroke="hsl(124.19999999999999, 77.2%, 51.5%)" stroke-width="1.5"></path><path d="M1397.7 673.94L1139.62 551.62" stroke="hsl(124.19999999999999, 77.2%, 51.5%)" stroke-width="1.5"></path><path d="M1553.89 -98.04L1553.89 -98.04" stroke="hsl(124.19999999999999, 77.2%, 51.5%)" stroke-width="1.5"></path><path d="M1553.89 -98.04L1585.92 99.22" stroke="hsl(124.19999999999999, 77.2%, 51.5%)" stroke-width="1.5"></path><path d="M1553.89 -98.04L1590.06 222.45" stroke="hsl(124.19999999999999, 77.2%, 51.5%)" stroke-width="1.5"></path><path d="M1553.89 -98.04L1459.2 255.48" stroke="hsl(124.19999999999999, 77.2%, 51.5%)" stroke-width="1.5"></path><path d="M1585.92 99.22L1585.92 99.22" stroke="hsl(124.19999999999999, 77.2%, 51.5%)" stroke-width="1.5"></path><path d="M1545.1 392.36L1545.1 392.36" stroke="hsl(124.19999999999999, 77.2%, 51.5%)" stroke-width="1.5"></path><path d="M1555.08 556.73L1555.08 556.73" stroke="hsl(124.19999999999999, 77.2%, 51.5%)" stroke-width="1.5"></path><path d="M1555.08 556.73L1548.12 686.91" stroke="hsl(124.19999999999999, 77.2%, 51.5%)" stroke-width="1.5"></path><path d="M1555.08 556.73L1545.1 392.36" stroke="hsl(124.19999999999999, 77.2%, 51.5%)" stroke-width="1.5"></path><path d="M1555.08 556.73L1308.71 502.26" stroke="hsl(124.19999999999999, 77.2%, 51.5%)" stroke-width="1.5"></path><path d="M1548.12 686.91L1548.12 686.91" stroke="hsl(124.19999999999999, 77.2%, 51.5%)" stroke-width="1.5"></path><path d="M1548.12 686.91L1276.14 666.6" stroke="hsl(124.19999999999999, 77.2%, 51.5%)" stroke-width="1.5"></path><path d="M1548.12 686.91L1545.1 392.36" stroke="hsl(124.19999999999999, 77.2%, 51.5%)" stroke-width="1.5"></path><path d="M1548.12 686.91L1308.71 502.26" stroke="hsl(124.19999999999999, 77.2%, 51.5%)" stroke-width="1.5"></path><path d="M1548.12 686.91L1394.26 378.3" stroke="hsl(124.19999999999999, 77.2%, 51.5%)" stroke-width="1.5"></path><circle r="25" cx="956.93" cy="346.98" fill="url(#SvgjsRadialGradient1065)"></circle><circle r="25" cx="1148.83" cy="252.87" fill="url(#SvgjsRadialGradient1065)"></circle><circle r="25" cx="1310.52" cy="-56.27" fill="url(#SvgjsRadialGradient1065)"></circle><circle r="25" cx="1590.06" cy="222.45" fill="url(#SvgjsRadialGradient1065)"></circle><circle r="5" cx="-110.63" cy="506.78" fill="#8bd991"></circle><circle r="5" cx="-109.3" cy="709.5" fill="#8bd991"></circle><circle r="5" cx="87.06" cy="559.16" fill="#8bd991"></circle><circle r="5" cx="234.21" cy="659.14" fill="#8bd991"></circle><circle r="5" cx="407.45" cy="541.97" fill="#8bd991"></circle><circle r="5" cx="341.02" cy="644.68" fill="#8bd991"></circle><circle r="5" cx="537.63" cy="398.03" fill="#8bd991"></circle><circle r="5" cx="553.43" cy="696.69" fill="#8bd991"></circle><circle r="5" cx="704.66" cy="712.3" fill="#8bd991"></circle><circle r="5" cx="806.62" cy="366.13" fill="#8bd991"></circle><circle r="5" cx="811.35" cy="506.79" fill="#8bd991"></circle><circle r="5" cx="796.12" cy="667.41" fill="#8bd991"></circle><circle r="5" cx="972.85" cy="646.48" fill="#8bd991"></circle><circle r="5" cx="1094.6" cy="355.13" fill="#8bd991"></circle><circle r="5" cx="1139.62" cy="551.62" fill="#8bd991"></circle><circle r="5" cx="1149.01" cy="655.63" fill="#8bd991"></circle><circle r="5" cx="1240.03" cy="95.05" fill="#8bd991"></circle><circle r="5" cx="1281.84" cy="241.75" fill="#8bd991"></circle><circle r="5" cx="1310.24" cy="379.52" fill="#8bd991"></circle><circle r="5" cx="1308.71" cy="502.26" fill="#8bd991"></circle><circle r="5" cx="1276.14" cy="666.6" fill="#8bd991"></circle><circle r="5" cx="1434.81" cy="-82.12" fill="#8bd991"></circle><circle r="5" cx="1459.2" cy="255.48" fill="#8bd991"></circle><circle r="5" cx="1394.26" cy="378.3" fill="#8bd991"></circle><circle r="5" cx="1397.7" cy="673.94" fill="#8bd991"></circle><circle r="5" cx="1553.89" cy="-98.04" fill="#8bd991"></circle><circle r="5" cx="1585.92" cy="99.22" fill="#8bd991"></circle><circle r="5" cx="1545.1" cy="392.36" fill="#8bd991"></circle><circle r="5" cx="1555.08" cy="556.73" fill="#8bd991"></circle><circle r="5" cx="1548.12" cy="686.91" fill="#8bd991"></circle></g><defs><mask id="SvgjsMask1064"><rect width="1440" height="560" fill="#ffffff"></rect></mask><radialGradient id="SvgjsRadialGradient1065"><stop stop-color="#ffffff" offset="0.1"></stop><stop stop-color="rgba(23, 179, 34, 1)" offset="0.2"></stop><stop stop-color="rgba(23, 179, 34, 0)" offset="1"></stop></radialGradient></defs></svg>